<svg width="166" height="46" viewBox="0 0 166 46" fill="none" xmlns="http://www.w3.org/2000/svg">
<path fill-rule="evenodd" clip-rule="evenodd" d="M97.932 0H95.4076V21.3171H97.932V0ZM65.7226 21.6912C71.8933 21.6912 75.7267 17.5771 75.7267 12.3882V11.126H65.5356V13.5569H73.0153C72.501 16.6423 70.0234 18.9797 65.7694 18.9797C60.8608 18.9797 57.6352 15.4736 57.6352 11.0325C57.6352 6.59155 60.9075 3.08545 65.6291 3.08545C68.5275 3.08545 71.0051 4.5813 72.1738 6.77856L74.5112 5.42285C72.8283 2.47754 69.5092 0.467529 65.6759 0.467529C59.4584 0.467529 54.9706 5.18896 54.9706 11.0793C54.9706 16.9229 59.4116 21.6912 65.7226 21.6912ZM0.0416961 44.8313C-0.145255 45.439 0.322214 46 0.929941 46L44.5925 45.813C45.1068 45.813 45.5275 45.3923 45.5275 44.8782V2.19727C45.5275 1.30908 44.3588 0.935059 43.8446 1.68286C42.6505 3.47412 41.2202 3.07544 39.8736 2.69995C38.9005 2.42871 37.9712 2.16968 37.2064 2.75806C35.5532 4.02222 35.0688 5.15161 34.5219 6.42676C34.2802 6.99048 34.0261 7.58276 33.6535 8.22778C33.1119 9.16528 31.7905 10.1863 30.3181 11.3237C28.4863 12.739 26.4208 14.3347 25.3323 16.1748C25.0061 16.7373 24.8613 17.1643 24.7356 17.5349C24.3389 18.7043 24.1332 19.3108 19.0214 21.8313C12.4508 25.071 11.8927 27.4646 11.2177 30.3594L11.1677 30.5732C11.0948 30.8845 11.0279 31.1968 10.9613 31.5081C10.3868 34.1902 9.82551 36.8108 5.51124 38.1931C2.00514 39.3152 0.555978 42.9614 0.0416961 44.8313ZM91.5275 6.73169V21.3171H89.0031V19.2134C87.9279 20.9431 86.3384 21.6912 84.2816 21.6912C80.869 21.6912 78.6251 19.4004 78.6251 15.6606V6.73169H81.1494V15.5671C81.1494 17.9512 82.5051 19.3069 84.749 19.3069C87.0864 19.3069 89.0031 17.9512 89.0031 14.4919V6.73169H91.5275ZM101.812 0H104.336V21.3171H101.812V0ZM109.525 0.654541C108.544 0.654541 107.796 1.44922 107.796 2.38403C107.796 3.31909 108.544 4.06714 109.525 4.06714C110.46 4.06714 111.208 3.31909 111.208 2.38403C111.208 1.44922 110.46 0.654541 109.525 0.654541ZM110.741 6.73169H108.217V21.3171H110.741V6.73169ZM127.617 6.73169L121.773 21.3171H118.782L112.938 6.73169H115.696L120.277 18.6057L124.859 6.73169H127.617ZM140.473 17.1565C139.725 18.3721 138.275 19.3069 136.265 19.3069C133.554 19.3069 131.45 17.811 130.983 15.1931H143.231C143.278 14.8191 143.324 14.4451 143.324 14.071C143.324 9.95728 140.473 6.35767 136.078 6.35767C131.497 6.35767 128.412 9.72363 128.412 14.0244C128.412 18.3721 131.497 21.6912 136.219 21.6912C139.117 21.6912 141.361 20.3354 142.623 18.3721L140.473 17.1565ZM140.706 12.9492H130.983C131.357 10.4248 133.273 8.74194 135.985 8.69507C138.182 8.69507 140.286 10.0508 140.706 12.9492ZM153.282 6.45117V9.11597C151.084 9.02246 148.747 10.1443 148.747 13.6038V21.3171H146.223V6.73169H148.747V9.1626C149.682 7.10571 151.458 6.45117 153.282 6.45117ZM63.1047 27.4412H69.1352V24.8699H54.4096V27.4412H60.4401V45.2988H63.1047V27.4412ZM76.6616 30.4329V33.0977C74.4645 33.0042 72.1271 34.126 72.1271 37.5854V45.2988H69.6027V30.7134H72.1271V33.1443C73.0153 31.134 74.7917 30.4329 76.6616 30.4329ZM90.4523 45.2988H92.9767V30.7134H90.4523V33.2378C89.2836 31.4614 87.4136 30.3394 84.936 30.3394C80.869 30.3394 77.5499 33.7053 77.5499 38.0061C77.5499 42.3069 80.869 45.6729 84.936 45.6729C87.4136 45.6729 89.2836 44.5508 90.4523 42.7744V45.2988ZM85.2165 32.7703C88.1616 32.7703 90.4055 35.0142 90.4055 38.0061C90.4055 40.998 88.1616 43.2419 85.2165 43.2419C82.2714 43.2419 80.0275 40.998 80.0275 38.0061C80.0275 35.0142 82.3181 32.7703 85.2165 32.7703ZM103.916 45.2988H100.971L95.1271 30.7134H97.8852L102.467 42.5874L107.048 30.7134H109.759L103.916 45.2988ZM122.615 41.1382C121.867 42.3538 120.418 43.2886 118.408 43.2886C115.696 43.2886 113.639 41.7927 113.125 39.1748H125.373C125.398 38.9739 125.423 38.7729 125.441 38.572C125.449 38.4822 125.456 38.3923 125.46 38.3025C125.463 38.2454 125.465 38.1882 125.466 38.1311L125.467 38.0527C125.467 33.939 122.615 30.3394 118.221 30.3394C113.639 30.3394 110.554 33.7053 110.554 38.0061C110.554 42.3538 113.639 45.6729 118.361 45.6729C121.259 45.6729 123.503 44.3171 124.765 42.3538L122.615 41.1382ZM122.895 36.9775H113.125C113.546 34.4065 115.416 32.7236 118.174 32.7236C120.371 32.7236 122.475 34.0793 122.895 36.9775ZM128.365 23.9817H130.889V45.2988H128.365V23.9817ZM137.294 23.9817H134.769V45.2988H137.294V23.9817ZM148.28 43.2886C150.29 43.2886 151.739 42.3538 152.487 41.1382L154.637 42.3538C153.375 44.3171 151.131 45.6729 148.233 45.6729C143.511 45.6729 140.426 42.3538 140.426 38.0061C140.426 33.7053 143.511 30.3394 148.093 30.3394C152.487 30.3394 155.338 33.939 155.338 38.0527C155.338 38.4268 155.292 38.8008 155.245 39.1748H142.997C143.464 41.7927 145.568 43.2886 148.28 43.2886ZM142.997 36.9775H152.767C152.347 34.0793 150.243 32.7236 148.046 32.7236C145.288 32.7236 143.418 34.4065 142.997 36.9775ZM165.343 33.0977V30.4329C163.473 30.4329 161.696 31.134 160.808 33.1443V30.7134H158.284V45.2988H160.808V37.5854C160.808 34.126 163.145 33.0042 165.343 33.0977Z" fill="#252834"/>
</svg>
